PathFileType	4	(X/Y/Z)	C:\Users\willi\Documents\UniDataLokal\DATA_Hans_PhD\TD01\3DGAIT_A_W12\marker_experimental.trc
DataRate	CameraRate	NumFrames	NumMarkers	Units	OrigDataRate	OrigDataStartFrame	OrigNumFrames
100.000000	100.000000	4	76	mm	100.000000	43	174
Frame#	Time	RBAK			C7			CLAV			T10			STRN			RASI			RPSI			LPSI			LASI			RTHI1			RTHI2			RTHI3			RTHI			RKNE			RKNEM			RPAT			RTIB1			RTIB2			RTIB3			RTIB			RANK			RANKM			RHEEL			RTOE			RM5			LTHI1			LTHI2			LTHI3			LTHI			LKNE			LKNEM			LPAT			LTIB1			LTIB2			LTIB3			LTIB			LANK			LANKM			LHEEL			LTOE			LM5			*41			*42			*43			*44			*45			*46			*47			*48			*49			*50			*51			*52			*53			*54			*55			*56			*57			*58			*59			*60			*61			*62			*63			*64			*65			*66			*67			*68			*69			*70			*71			*72			*73			*74			*75			
		X1	Y1	Z1	X2	Y2	Z2	X3	Y3	Z3	X4	Y4	Z4	X5	Y5	Z5	X6	Y6	Z6	X7	Y7	Z7	X8	Y8	Z8	X9	Y9	Z9	X10	Y10	Z10	X11	Y11	Z11	X12	Y12	Z12	X13	Y13	Z13	X14	Y14	Z14	X15	Y15	Z15	X16	Y16	Z16	X17	Y17	Z17	X18	Y18	Z18	X19	Y19	Z19	X20	Y20	Z20	X21	Y21	Z21	X22	Y22	Z22	X23	Y23	Z23	X24	Y24	Z24	X25	Y25	Z25	X26	Y26	Z26	X27	Y27	Z27	X28	Y28	Z28	X29	Y29	Z29	X30	Y30	Z30	X31	Y31	Z31	X32	Y32	Z32	X33	Y33	Z33	X34	Y34	Z34	X35	Y35	Z35	X36	Y36	Z36	X37	Y37	Z37	X38	Y38	Z38	X39	Y39	Z39	X40	Y40	Z40	X41	Y41	Z41	X42	Y42	Z42	X43	Y43	Z43	X44	Y44	Z44	X45	Y45	Z45	X46	Y46	Z46	X47	Y47	Z47	X48	Y48	Z48	X49	Y49	Z49	X50	Y50	Z50	X51	Y51	Z51	X52	Y52	Z52	X53	Y53	Z53	X54	Y54	Z54	X55	Y55	Z55	X56	Y56	Z56	X57	Y57	Z57	X58	Y58	Z58	X59	Y59	Z59	X60	Y60	Z60	X61	Y61	Z61	X62	Y62	Z62	X63	Y63	Z63	X64	Y64	Z64	X65	Y65	Z65	X66	Y66	Z66	X67	Y67	Z67	X68	Y68	Z68	X69	Y69	Z69	X70	Y70	Z70	X71	Y71	Z71	X72	Y72	Z72	X73	Y73	Z73	X74	Y74	Z74	X75	Y75	Z75	X76	Y76	Z76	

44	0.43	-829.4739990234374	1198.261840820312	346.6745910644531	-841.8750610351561	1225.657836914062	218.7028656005859	-726.3710937499999	1157.55224609375	217.6357421874999	-891.7072143554686	964.7860717773438	203.7409362792968	-682.4758911132811	955.3817749023438	246.5549011230468	-782.65869140625	874.6536865234375	344.4357604980468	-918.4557495117188	864.6819458007812	244.7381744384765	-904.5670166015625	854.927001953125	167.4211730957031	-752.5857543945312	850.6561889648438	118.8376541137695	-934.9546508789062	638.9187011718751	333.4435729980468	-900.0270385742188	579.8810424804688	352.4736328124999	-941.8796997070312	537.3817138671876	325.5874938964843	-923.451171875	551.094970703125	377.1683349609374	-938.1756591796875	437.7512207031251	322.8904113769531	-901.4872436523438	427.2302551269532	219.1773071289062	-859.7455444335938	427.2839050292969	286.8958129882812	-954.2323608398438	238.2727813720704	258.0906677246093	-982.24462890625	198.4079895019532	302.9731140136718	-987.3970947265625	152.8819885253907	252.6652069091796	-1043.60107421875	182.2137451171876	343.2943420410156	-1057.223022460938	91.24442291259773	293.9490966796874	-1028.089233398438	92.02719879150396	222.1242218017578	-1104.064331054688	74.93428802490241	244.3879089355468	-938.2024536132812	39.37835693359381	303.9509887695312	-979.7410888671875	27.62527656555182	333.7799987792968	-748.4503173828125	571.5980224609375	106.8826446533203	-687.0169677734375	551.8595581054688	88.11605834960933	-685.4457397460938	494.0453796386719	118.5732345581054	-666.5185546875	541.2839965820312	53.92075347900386	-620.7926635742188	464.3650512695313	94.61499786376949	-600.7847900390625	462.7640686035157	201.7001647949218	-553.07958984375	499.2772216796876	144.9751892089843	-559.19384765625	279.1365966796876	146.821548461914	-578.0589599609375	229.888656616211	98.40069580078122	-552.4541625976562	179.9912261962891	150.000732421875	-618.4493408203125	191.7333679199219	64.5963973999023	-602.7344970703125	97.09377288818364	113.0287780761718	-570.5582885742188	114.393539428711	182.0274963378906	-635.4371337890625	77.86915588378911	172.3936157226562	-468.1357727050781	55.61206817626956	119.4344635009765	-501.7167358398438	41.47547149658206	90.64198303222653	nan	nan	nan	nan	nan	nan	nan	nan	nan	nan	nan	nan	nan	nan	nan	nan	nan	nan	nan	nan	nan	nan	nan	nan	nan	nan	nan	nan	nan	nan	nan	nan	nan	nan	nan	nan	nan	nan	nan	nan	nan	nan	nan	nan	nan	nan	nan	nan	nan	nan	nan	nan	nan	nan	nan	nan	nan	nan	nan	nan	nan	nan	nan	nan	nan	nan	nan	nan	nan	nan	nan	nan	nan	nan	nan	nan	nan	nan	nan	nan	nan	nan	nan	nan	nan	nan	nan	nan	nan	nan	nan	nan	nan	nan	nan	nan	nan	nan	nan	nan	nan	nan	nan	nan	nan	
45	0.44	-814.4508666992186	1196.645629882812	345.4493713378906	-826.9729614257811	1223.677124023438	217.6245574951171	-711.3937988281249	1155.51171875	216.2812805175781	-876.8133544921874	962.9027709960938	201.6879425048828	-668.0092773437499	953.3258056640625	246.913818359375	-770.0250854492188	873.016357421875	343.8718872070312	-904.1570434570312	862.8792724609375	242.1752014160156	-889.2764282226562	852.793212890625	165.1804656982421	-736.6235961914062	848.46826171875	118.7521514892578	-924.6913452148438	639.5516967773438	331.9960021972656	-891.1691284179688	579.8993530273438	351.7875061035156	-933.54443359375	538.0819091796876	324.6047668457031	-915.455078125	551.66552734375	376.3314208984374	-931.6126098632812	438.4243774414063	322.3467407226562	-894.7647705078125	426.7003173828126	218.9260559082031	-853.2598876953125	425.8252258300782	287.0102233886718	-950.7487182617188	238.982162475586	258.0975646972656	-979.2861328125	199.6754760742188	303.1863708496093	-985.225830078125	154.1031341552735	252.9046020507812	-1040.89990234375	184.5664825439454	343.5606079101562	-1055.96142578125	93.67013549804695	294.4428710937499	-1026.954345703125	93.85564422607428	222.5203094482421	-1103.116577148438	78.26803588867195	244.9968261718749	-938.0993041992188	39.34587478637701	304.1018066406249	-979.641357421875	27.70789146423346	333.7664489746093	-735.2489624023438	567.6068725585938	106.5830154418945	-673.8615112304688	547.7763671875	88.01775360107418	-672.5010986328125	490.1936645507813	118.9107284545898	-653.2803955078125	536.778076171875	53.90694046020504	-606.9646606445312	460.5622253417969	95.38353729248043	-588.2259521484375	458.8041992187501	202.8076629638672	-541.0311279296875	496.2519836425782	146.5475769042968	-533.4771118164062	279.3982543945313	145.8807525634765	-548.5328979492188	229.3858795166016	97.02202606201169	-519.137451171875	180.9995574951172	148.1360626220703	-586.0949096679688	188.7965545654297	62.85094070434567	-563.6207275390625	95.06565856933597	110.7106704711914	-532.4189453125	114.0441284179688	179.5496063232422	-594.8667602539062	74.63110351562504	170.0807800292968	-426.431396484375	59.52914810180667	118.2517318725586	-459.0499572753906	43.63443756103518	89.32865142822263	nan	nan	nan	nan	nan	nan	nan	nan	nan	nan	nan	nan	nan	nan	nan	nan	nan	nan	nan	nan	nan	nan	nan	nan	nan	nan	nan	nan	nan	nan	nan	nan	nan	nan	nan	nan	nan	nan	nan	nan	nan	nan	nan	nan	nan	nan	nan	nan	nan	nan	nan	nan	nan	nan	nan	nan	nan	nan	nan	nan	nan	nan	nan	nan	nan	nan	nan	nan	nan	nan	nan	nan	nan	nan	nan	nan	nan	nan	nan	nan	nan	nan	nan	nan	nan	nan	nan	nan	nan	nan	nan	nan	nan	nan	nan	nan	nan	nan	nan	nan	nan	nan	nan	nan	nan	
46	0.45	-799.4052734374999	1194.998046875	344.0584411621093	-811.9457397460936	1221.5947265625	216.412124633789	-696.2452392578124	1153.459594726562	214.8664245605468	-861.6394042968749	960.9065551757812	199.6725616455078	-653.3220214843749	951.1986083984375	247.1247253417968	-757.0128784179688	871.2783813476562	343.2556457519531	-889.5045776367188	860.9305419921875	239.6681213378906	-873.7470092773438	850.5615234375	162.9918060302734	-720.568603515625	846.2863159179688	118.5198287963867	-913.8590698242188	640.087158203125	330.5496215820312	-881.7355346679688	579.86767578125	351.0887756347656	-924.6226196289062	538.7176513671875	323.6536865234374	-906.8070068359375	552.171875	375.5245361328124	-924.4734497070312	439.0868530273438	321.8063049316406	-887.5401000976562	426.1886596679688	218.6480865478515	-846.2447509765625	424.3437194824219	287.1002197265624	-946.9302978515625	239.7549285888672	258.1192626953124	-976.0010375976562	201.0472564697266	303.4501953124999	-982.815185546875	155.4676971435547	253.169204711914	-1037.895751953125	187.1210937500001	343.8563232421874	-1054.512939453125	96.33527374267585	294.9781494140624	-1025.643920898438	95.8999862670899	222.956558227539	-1101.979614257812	81.94047546386726	245.6499938964843	-937.98046875	39.33204650878912	304.2581481933593	-979.5296020507812	27.80644798278815	333.7251892089843	-721.7061157226562	563.6292114257812	106.0443801879882	-660.3471069335938	543.717041015625	87.70242309570308	-659.3397827148438	486.3506774902344	118.9768524169921	-639.442138671875	532.3843994140625	53.74287796020504	-592.9801635742188	456.7349853515626	96.05628967285152	-575.8656005859375	454.6061096191407	203.9381103515625	-528.9653930664062	492.9915771484376	148.4090423583984	-509.1285705566406	279.7376403808594	144.9928283691406	-520.6713256835938	229.2934722900391	95.67295837402341	-487.957763671875	182.4909820556641	146.3170013427734	-555.4566650390625	186.7779235839844	61.01837158203121	-526.9719848632812	94.12805175781253	108.3211593627929	-496.8349914550781	114.6262588500977	177.0437469482422	-557.00830078125	72.83750152587893	167.5886077880859	-387.5425109863281	64.06343078613284	117.5500717163086	-419.0770568847656	46.3216361999512	88.47647857666013	nan	nan	nan	nan	nan	nan	nan	nan	nan	nan	nan	nan	nan	nan	nan	nan	nan	nan	nan	nan	nan	nan	nan	nan	nan	nan	nan	nan	nan	nan	nan	nan	nan	nan	nan	nan	nan	nan	nan	nan	nan	nan	nan	nan	nan	nan	nan	nan	nan	nan	nan	nan	nan	nan	nan	nan	nan	nan	nan	nan	nan	nan	nan	nan	nan	nan	nan	nan	nan	nan	nan	nan	nan	nan	nan	nan	nan	nan	nan	nan	nan	nan	nan	nan	nan	nan	nan	nan	nan	nan	nan	nan	nan	nan	nan	nan	nan	nan	nan	nan	nan	nan	nan	nan	nan	
47	0.46	-784.3234252929686	1193.336791992188	342.5010986328124	-796.7976684570311	1219.429077148438	215.065689086914	-680.9331665039061	1151.418334960938	213.3787841796875	-846.1647338867186	958.8032836914062	197.7206878662109	-638.3785400390624	949.0321655273438	247.1125030517578	-743.540283203125	869.4591674804688	342.5710449218749	-874.45263671875	858.8634033203125	237.2407684326171	-857.9545288085938	848.263671875	160.8680572509765	-704.405029296875	844.1317749023438	118.1065521240234	-902.411865234375	640.5166625976562	329.1062927246093	-871.6695556640625	579.7822265625	350.3688659667968	-915.0563354492188	539.2796020507812	322.7237854003906	-897.4366455078125	552.599365234375	374.7409362792968	-916.7012329101562	439.7334899902344	321.2703552246093	-879.7042236328125	425.6777343750001	218.3495330810546	-838.6290893554688	422.8470153808594	287.1594543457031	-942.7156982421875	240.5960388183594	258.1593627929687	-972.3569946289062	202.5330505371094	303.7573242187499	-980.1109008789062	156.9909057617188	253.4475708007812	-1034.55419921875	189.8976135253907	344.1419677734374	-1052.845336914062	99.26627349853523	295.5209350585937	-1024.103759765625	98.18865203857428	223.4129486083984	-1100.602172851562	85.98869323730476	246.3000030517578	-937.839599609375	39.34429931640631	304.4165954589843	-979.4154052734375	27.94019126892096	333.6442871093749	-707.615234375	559.8523559570312	105.2958679199218	-646.2620849609375	539.8914794921875	87.19536590576168	-645.715576171875	482.6949768066407	118.7508773803711	-624.8033447265625	528.3561401367188	53.45669555664059	-578.6328125	453.0706176757813	96.56707000732419	-563.3673095703125	450.4165039062501	204.9741973876953	-516.578125	489.7602233886719	150.4231719970703	-486.2302856445312	279.9857482910157	144.1664428710937	-494.7312622070312	229.3785705566407	94.40290069580075	-459.2610473632812	184.1041717529297	144.6112213134765	-526.975830078125	185.4524841308594	59.20669174194332	-493.4174194335938	93.89492797851565	106.000503540039	-464.3499145507812	115.7183456420899	174.6382293701172	-522.5228271484375	72.09934997558597	165.0912628173828	-352.1416625976562	68.55423736572268	117.2692642211914	-382.5463562011719	48.94087982177737	88.1069641113281	nan	nan	nan	nan	nan	nan	nan	nan	nan	nan	nan	nan	nan	nan	nan	nan	nan	nan	nan	nan	nan	nan	nan	nan	nan	nan	nan	nan	nan	nan	nan	nan	nan	nan	nan	nan	nan	nan	nan	nan	nan	nan	nan	nan	nan	nan	nan	nan	nan	nan	nan	nan	nan	nan	nan	nan	nan	nan	nan	nan	nan	nan	nan	nan	nan	nan	nan	nan	nan	nan	nan	nan	nan	nan	nan	nan	nan	nan	nan	nan	nan	nan	nan	nan	nan	nan	nan	nan	nan	nan	nan	nan	nan	nan	nan	nan	nan	nan	nan	nan	nan	nan	nan	nan	nan	
